<?xml version="1.0" encoding="utf-8"?>
<!-- Generator: Adobe Illustrator 25.2.0, SVG Export Plug-In . SVG Version: 6.00 Build 0)  -->
<svg version="1.1" id="Layer_1" xmlns="http://www.w3.org/2000/svg" xmlns:xlink="http://www.w3.org/1999/xlink" x="0px" y="0px"
	 viewBox="0 0 841.9 595.3" style="enable-background:new 0 0 841.9 595.3;" xml:space="preserve">
<style type="text/css">
	.st0{fill:#FFFFFF;}
	.st1{fill:#39B54A;}
	.st2{fill:#00541F;}
	.st3{opacity:0;fill:#FFFFFF;}
	.st4{fill:url(#SVGID_1_);}
	.st5{fill:#3BB54A;stroke:#3BB54A;}
	.st6{font-family:'MyriadPro-Regular';}
	.st7{font-size:12px;}
</style>
<g>
	<g>
		<g>
			<path class="st0" d="M421.3,236.4v12c-83.6,0-151.4,33.7-151.4,75.2c0,42.3,67.8,76.7,151.4,76.7c83.8,0,151.8-35.1,151.8-78.3
				C573.1,274.8,505.1,236.4,421.3,236.4z M539.5,262.9c5.5,0,9.9-4.4,9.9-9.9c0-5.5-4.4-9.9-9.9-9.9s-9.9,4.4-9.9,9.9
				C529.6,258.5,534,262.9,539.5,262.9z"/>
		</g>
	</g>
	<path class="st1" d="M464.5,245c-0.6,1.6-1.4,3.1-2.3,4.5c21.3,4.7,43.8,12.7,60,24.4c0.7,0.5,0.1,1.4-0.6,1.1
		c-27.4-14.2-63.3-21.5-100.3-21.5c-78.2,0-141.6,31.4-141.6,70.2c0,39.6,63.4,71.7,141.6,71.7c78.4,0,141.9-32.8,141.9-73.3
		C563.2,286,521.8,255.4,464.5,245z"/>
	<path class="st2" d="M497.5,375.1c0.9-0.2,1.2,0.7,0.4,1c-20.1,8.1-47.9,12.8-76.6,12.8c-69.6,0-126.1-29.2-126.1-65.2
		c0-36,56.4-65.2,126.1-65.2c78.4,0,126.4,33.9,126.2,63.5c-0.2,26.1-34.9,50.9-105.1,50.9c-29.2,0-66.3-5.5-95.9-17.4
		c-1.3-0.5-1.9,1.4-0.7,2C378.2,374.9,437,386.9,497.5,375.1z"/>
	
		<image style="overflow:visible;" width="952" height="446" xlink:href="85C587E9792D2857.png"  transform="matrix(0.24 0 0 0.24 306.96 260.4754)">
	</image>
	<path class="st3" d="M497.5,375.1c0.9-0.2,1.2,0.7,0.4,1c-20.1,8.1-47.9,12.8-76.6,12.8c-69.6,0-126.1-29.2-126.1-65.2
		c0-36,56.4-65.2,126.1-65.2c78.4,0,126.4,33.9,126.2,63.5c-0.2,26.1-34.9,50.9-105.1,50.9c-29.2,0-66.3-5.5-95.9-17.4
		c-1.3-0.5-1.9,1.4-0.7,2C378.2,374.9,437,386.9,497.5,375.1z"/>
	<path class="st0" d="M456.9,299.9c-6,0-13.8,5.8-18.5,15.5c0.6-4.4,0.9-9.6,0.4-12.6c-0.2-1-0.7-1.7-3.6-1.6
		c-3.2,0.1-7.5,1.5-10,2.9c0,0,2.1,5.8-2.5,35.4c-1.4,8.9,4.7,11.5,14.9,9.9c-4-5.8,3.3-41.5,19.9-34.1
		C464,304.9,462.2,299.9,456.9,299.9z M356.8,324.5c4.5-23.4,5.8-36.2,5.8-40.3c0-1.1-0.5-2.9-4.1-2.9c-4.9,0-8.1,1.2-10.9,2.6
		c0.4,1.4,1.6,11.3-7.1,52c-3.7,17.3-0.4,21.2,14.2,18.6C353.3,350.4,353.3,342.6,356.8,324.5z M512.9,309.2
		c0.8-4.4-0.4-6.3-4.3-7.4c-25.8-7.3-45.4,9.2-45.4,31.5c0,8.5,4.3,16.5,13.5,16.5c7.4,0,14.1-5.1,18.9-10.9c0,0-0.2,3.9,0.2,6.3
		c0.8,4,4.8,6,14.1,3C508.5,342.7,509.2,328.9,512.9,309.2z M499.4,310.4c-1.4,14.3-7,28.5-15.9,28.5c-3.6,0-6.2-2.9-6.2-7.6
		C477.3,319,487.1,306.4,499.4,310.4z M415.5,312.5c0.8-4.4-0.4-6.3-4.3-7.4c-25.8-7.3-45.4,9.2-45.4,31.5c0,8.5,4.3,16.5,13.5,16.5
		c7.4,0,14.1-5.1,18.9-10.9c0,0-0.2,3.9,0.2,6.3c0.8,4,4.8,6,14.1,3C411.1,346,411.8,332.2,415.5,312.5z M402.1,313.6
		c-1.4,14.3-7,28.5-15.9,28.5c-3.6,0-6.2-2.9-6.2-7.6C380,322.2,389.7,309.6,402.1,313.6z"/>
	<path class="st0" d="M367.7,238.3c-7.3,5-6.8,19.4,1.5,29.6c8.2,10,21.4,11.7,29.9,7.2c-1.6,9.5,3.5,19.4,22.9,13.1
		c19.6-6.3,20.6-19.5,16.7-29.1c11,0.8,22.5-3.8,26.2-15.2c2.7-8.3,1-18.6-7.7-23.9c0.4-11.9-14.4-22.3-29-22
		c-7.5,0.1-12.2,4.9-12.5,11.1c-9.7-10.7-22.7-10.9-35.4-0.1c-12.2,10.4-14.4,25-8,31.1C371.5,239.8,368.2,238.7,367.7,238.3z"/>
	
		<radialGradient id="SVGID_1_" cx="381.593" cy="251.7858" r="72.3412" gradientTransform="matrix(0.9921 -0.1252 0.1252 0.9921 -15.073 58.0361)" gradientUnits="userSpaceOnUse">
		<stop  offset="0" style="stop-color:#FFE293"/>
		<stop  offset="4.582658e-02" style="stop-color:#FFE18F"/>
		<stop  offset="0.1014" style="stop-color:#FFE083"/>
		<stop  offset="0.1621" style="stop-color:#FFDD6F"/>
		<stop  offset="0.2263" style="stop-color:#FFD94D"/>
		<stop  offset="0.2928" style="stop-color:#FFD508"/>
		<stop  offset="0.3" style="stop-color:#FFD400"/>
		<stop  offset="1" style="stop-color:#FAA61A"/>
	</radialGradient>
	<path class="st4" d="M420.2,250.9c9.7-1.8,29,24.1,0.5,33.3C386.6,295.2,411.8,252.5,420.2,250.9z M457.1,225.2
		c-2.1,2.7-6.2,6.3-9.4,7.1c14.9-17.9-6.3-30.1-19.4-29.7c-3.8,0.1-7.2,1.6-7.9,5.4c-2,9.8,6.7,21.1,3.7,35.6c-2,9.9,31,19.5,37-2.4
		C462.3,237.4,461.9,229.1,457.1,225.2z M376.3,268.8c20.5,14.8,35.6-12.8,33.2-15.7c-5.4-6.5-1.7-16.7,9.7-15.1
		c6,0.8-1.7-32.5-20.1-32.5c-17,0-41.7,30.6-11.6,40.7c-6.1,0.2-14.1-0.4-18.8-2.4C364.7,247.8,367,261.9,376.3,268.8z"/>
</g>
<text transform="matrix(1 0 0 1 518.0693 257.1118)" class="st5 st6 st7">Trololol</text>
</svg>
